<?xml version="1.0" encoding="UTF-8" standalone="no"?>
<!-- Created with Inkscape (http://www.inkscape.org/) -->

<svg
   width="312.86862mm"
   height="210.59973mm"
   viewBox="0 0 312.86862 210.59973"
   version="1.1"
   id="svg5"
   inkscape:version="1.1 (c4e8f9e, 2021-05-24)"
   sodipodi:docname="logo.svg"
   xmlns:inkscape="http://www.inkscape.org/namespaces/inkscape"
   xmlns:sodipodi="http://sodipodi.sourceforge.net/DTD/sodipodi-0.dtd"
   xmlns="http://www.w3.org/2000/svg"
   xmlns:svg="http://www.w3.org/2000/svg">
  <sodipodi:namedview
     id="namedview7"
     pagecolor="#ffffff"
     bordercolor="#666666"
     borderopacity="1.0"
     inkscape:pageshadow="2"
     inkscape:pageopacity="0.0"
     inkscape:pagecheckerboard="0"
     inkscape:document-units="mm"
     showgrid="false"
     inkscape:zoom="0.26629643"
     inkscape:cx="811.12616"
     inkscape:cy="253.47693"
     inkscape:window-width="1920"
     inkscape:window-height="1027"
     inkscape:window-x="0"
     inkscape:window-y="25"
     inkscape:window-maximized="1"
     inkscape:current-layer="layer1" />
  <defs
     id="defs2">
    <rect
       x="111.35395"
       y="432.8436"
       width="317.89758"
       height="109.55792"
       id="rect1463" />
  </defs>
  <g
     inkscape:label="Layer 1"
     inkscape:groupmode="layer"
     id="layer1"
     transform="translate(32.69209,-8.9009835)">
    <text
       xml:space="preserve"
       transform="scale(0.26458333)"
       id="text1461"
       style="font-style:normal;font-variant:normal;font-weight:normal;font-stretch:normal;font-size:40px;line-height:1.25;font-family:'Times New Roman';-inkscape-font-specification:'Times New Roman, Normal';font-variant-ligatures:normal;font-variant-caps:normal;font-variant-numeric:normal;font-variant-east-asian:normal;white-space:pre;shape-inside:url(#rect1463);fill:#000000;fill-opacity:1;stroke:none" />
    <g
       id="g14092"
       transform="matrix(2.6255569,0,0,2.6255569,-124.24649,16.834968)">
      <path
         d="m 34.870469,55.33231 v -1.068375 h 1.472642 q 2.483277,0 3.522785,-1.588144 0.635259,-0.952877 0.635259,-4.273554 V 23.107466 q 0,-3.667173 -0.808506,-4.59116 -1.12614,-1.270538 -3.349538,-1.270538 h -1.472642 v -1.068375 h 15.939175 q 8.778093,0 13.340391,1.992418 4.591177,1.992362 7.363206,6.641298 2.800908,4.648938 2.800908,10.741634 0,8.171724 -4.966556,13.657982 -5.572936,6.121585 -16.978681,6.121585 z m 11.174743,-2.829796 q 3.667169,0.808544 6.150446,0.808544 6.69907,0 11.116996,-4.706714 4.417923,-4.706658 4.417923,-12.762883 0,-8.113946 -4.417923,-12.791773 -4.417926,-4.67777 -11.347998,-4.67777 -2.598783,0 -5.919444,0.837378 z"
         id="path5906"
         style="font-size:10.5833px;line-height:1.25;font-family:'Times New Roman';-inkscape-font-specification:'Times New Roman, Normal';fill:#071374;fill-opacity:1;stroke-width:1.47842" />
      <path
         d="m 102.32383,16.151359 q 4.07143,0.866266 6.0927,2.772076 2.8009,2.656522 2.8009,6.496914 0,2.916405 -1.84802,5.601813 -1.84802,2.656518 -5.08205,3.898169 -3.20517,1.212762 -9.817599,1.212762 H 75.989559 v -1.068375 h 1.472642 q 2.454399,0 3.522785,-1.559257 0.664136,-1.010654 0.664136,-4.302442 V 3.9082417 q 0,-3.63828184 -0.83739,-4.59116013 -1.126133,-1.27053737 -3.349531,-1.27053737 h -1.472642 v -1.0683734 h 16.920933 q 4.735553,0 7.594198,0.6929917 4.3313,1.0395404 6.61245,3.696059 2.28115,2.6276297 2.28115,6.063806 0,2.9452955 -1.79027,5.2842105 -1.79027,2.310024 -5.28419,3.436121 z M 87.19318,14.592102 q 1.068385,0.202284 2.425529,0.317941 1.386014,0.08662 3.031903,0.08662 4.215799,0 6.323694,-0.895154 2.136764,-0.92399 3.262904,-2.800909 1.12614,-1.8768624 1.12614,-4.1002792 0,-3.4361745 -2.80091,-5.8616982 -2.800898,-2.4255217 -8.171702,-2.4255217 -2.887534,0 -5.197558,0.63526729 z m 0,18.711194 q 3.349538,0.779657 6.612445,0.779657 5.226431,0 7.969575,-2.338913 2.74316,-2.367745 2.74316,-5.832809 0,-2.281137 -1.24164,-4.389053 -1.24164,-2.10786 -4.042544,-3.320679 -2.800898,-1.212762 -6.930063,-1.212762 -1.790273,0 -3.060788,0.05754 -1.270512,0.05757 -2.050145,0.202284 z"
         id="path5908"
         style="font-size:10.5833px;line-height:1.25;font-family:'Times New Roman';-inkscape-font-specification:'Times New Roman, Normal';fill:#000b77;fill-opacity:1;stroke-width:1.47842" />
      <path
         d="M 96.859362,67.618863 78.248152,43.453288 81.77773,69.375112 c 0.324615,2.384277 0.784731,3.837002 1.380249,4.358187 0.814829,0.705019 1.985209,0.953641 3.511144,0.745865 l 1.373347,-0.186962 0.144124,1.058615 -13.504534,1.838805 -0.144125,-1.058615 1.373348,-0.186963 c 1.640385,-0.223327 2.736386,-0.877686 3.288,-1.963077 0.336525,-0.667499 0.356746,-2.088486 0.06066,-4.262961 L 75.808281,44.36838 C 75.574583,42.651732 75.214992,41.437893 74.729604,40.726851 74.387235,40.210057 73.828969,39.819792 73.05481,39.556056 72.297123,39.270682 72.751064,39.23578 71.167905,39.451354 l -0.144122,-1.058606 9.362378,-1.495977 17.580304,23.939394 10.344325,-27.741681 10.98674,-1.495977 0.14411,1.058601 -1.34473,0.18306 c -1.65946,0.225895 -2.76499,0.88159 -3.3166,1.966983 -0.33653,0.667498 -0.35673,2.088474 -0.0606,4.262931 l 3.45168,25.349623 c 0.32463,2.384276 0.79424,3.835705 1.40886,4.35429 0.81482,0.70502 1.98521,0.953641 3.51115,0.745866 l 1.34474,-0.18306 0.14412,1.058617 -16.48012,2.243968 -0.14413,-1.058614 1.37335,-0.186962 c 1.65946,-0.225896 2.75545,-0.880289 3.288,-1.96308 0.33652,-0.667499 0.35675,-2.088486 0.0607,-4.26296 L 109.1484,39.24594 98.70342,67.244606 Z"
         id="path5912"
         style="font-size:10.5833px;line-height:1.25;font-family:'Times New Roman';-inkscape-font-specification:'Times New Roman, Normal';fill:#ff0000;stroke-width:1.47842"
         sodipodi:nodetypes="ccsccccccscsccccccccccscccccccccsccccc" />
      <path
         d="m 148.46029,16.427724 1.01064,12.358666 h -1.01064 q -1.53039,-4.620049 -3.95591,-6.958962 -3.49392,-3.378398 -8.98023,-3.378398 -7.4787,0 -11.37687,5.919421 -3.26292,4.995431 -3.26292,11.896616 0,5.601814 2.16565,10.221862 2.16565,4.62005 5.65957,6.785688 3.52278,2.136804 7.21882,2.136804 2.16566,0 4.18692,-0.548715 2.02127,-0.548717 3.89817,-1.616979 V 41.924602 q 0,-2.945293 -0.46199,-3.840448 -0.43311,-0.923987 -1.38602,-1.385983 -0.92401,-0.4906 -3.29178,-0.4906 v -1.097264 h 15.15954 v 1.097264 h -0.72188 q -2.25228,0 -3.08967,1.501479 -0.57751,1.068428 -0.57751,4.215831 v 11.983228 q -3.32065,1.790309 -6.55469,2.627687 -3.23403,0.837378 -7.18995,0.837378 -11.34799,0 -17.23855,-7.276568 -4.41793,-5.457483 -4.41793,-12.589666 0,-5.168653 2.48328,-9.904254 2.94528,-5.630648 8.08507,-8.662551 4.30243,-2.512189 10.16412,-2.512189 2.13677,0 3.86929,0.346439 1.76139,0.346441 4.96655,1.530426 1.61703,0.60638 2.16565,0.60638 0.54867,0 0.92402,-0.491161 0.40427,-0.519661 0.49088,-1.992418 z"
         id="path5914"
         style="font-size:10.5833px;line-height:1.25;font-family:'Times New Roman';-inkscape-font-specification:'Times New Roman, Normal';fill:#000b77;fill-opacity:1;stroke-width:1.47842" />
    </g>
  </g>
</svg>
